<mxfile host="app.diagrams.net" modified="2024-05-14T01:03:57.996Z" agent="Mozilla/5.0 (Windows NT 10.0; Win64; x64) AppleWebKit/537.36 (KHTML, like Gecko) Chrome/124.0.0.0 Safari/537.36" etag="uN8I_c1g7ScHyR1wyI0o" version="24.4.0" type="github">
  <diagram name="第 1 页" id="tad9dv9dM1d2NFP1EUsj">
    <mxGraphModel dx="808" dy="540" grid="1" gridSize="10" guides="1" tooltips="1" connect="1" arrows="1" fold="1" page="1" pageScale="1" pageWidth="827" pageHeight="1169" math="0" shadow="0">
      <root>
        <mxCell id="0" />
        <mxCell id="1" parent="0" />
        <mxCell id="oVk_kqx2sWhHf-lJc-hk-1" value="" style="edgeStyle=orthogonalEdgeStyle;rounded=0;orthogonalLoop=1;jettySize=auto;html=1;" edge="1" parent="1" source="oVk_kqx2sWhHf-lJc-hk-2" target="oVk_kqx2sWhHf-lJc-hk-21">
          <mxGeometry relative="1" as="geometry" />
        </mxCell>
        <mxCell id="oVk_kqx2sWhHf-lJc-hk-2" value="开始识别" style="rounded=1;whiteSpace=wrap;html=1;fontSize=12;glass=0;strokeWidth=1;shadow=0;" vertex="1" parent="1">
          <mxGeometry x="197" y="63" width="103" height="35" as="geometry" />
        </mxCell>
        <mxCell id="oVk_kqx2sWhHf-lJc-hk-16" value="识别结束" style="rounded=1;whiteSpace=wrap;html=1;fontSize=12;glass=0;strokeWidth=1;shadow=0;" vertex="1" parent="1">
          <mxGeometry x="205" y="500" width="87" height="46" as="geometry" />
        </mxCell>
        <mxCell id="oVk_kqx2sWhHf-lJc-hk-20" style="edgeStyle=orthogonalEdgeStyle;rounded=0;orthogonalLoop=1;jettySize=auto;html=1;exitX=0.5;exitY=1;exitDx=0;exitDy=0;entryX=0.5;entryY=0;entryDx=0;entryDy=0;" edge="1" parent="1" source="oVk_kqx2sWhHf-lJc-hk-21" target="oVk_kqx2sWhHf-lJc-hk-34">
          <mxGeometry relative="1" as="geometry" />
        </mxCell>
        <mxCell id="oVk_kqx2sWhHf-lJc-hk-21" value="通过麦克风采集音频数据" style="rounded=1;whiteSpace=wrap;html=1;fontSize=12;glass=0;strokeWidth=1;shadow=0;" vertex="1" parent="1">
          <mxGeometry x="197" y="130" width="103" height="35" as="geometry" />
        </mxCell>
        <mxCell id="oVk_kqx2sWhHf-lJc-hk-22" style="edgeStyle=orthogonalEdgeStyle;rounded=0;orthogonalLoop=1;jettySize=auto;html=1;exitX=0.5;exitY=1;exitDx=0;exitDy=0;entryX=0.5;entryY=0;entryDx=0;entryDy=0;" edge="1" parent="1" source="oVk_kqx2sWhHf-lJc-hk-23" target="oVk_kqx2sWhHf-lJc-hk-25">
          <mxGeometry relative="1" as="geometry" />
        </mxCell>
        <mxCell id="oVk_kqx2sWhHf-lJc-hk-23" value="增益" style="rounded=1;whiteSpace=wrap;html=1;fontSize=12;glass=0;strokeWidth=1;shadow=0;" vertex="1" parent="1">
          <mxGeometry x="211" y="282" width="77.5" height="40" as="geometry" />
        </mxCell>
        <mxCell id="oVk_kqx2sWhHf-lJc-hk-36" style="edgeStyle=orthogonalEdgeStyle;rounded=0;orthogonalLoop=1;jettySize=auto;html=1;exitX=1;exitY=0.5;exitDx=0;exitDy=0;entryX=0;entryY=0.5;entryDx=0;entryDy=0;" edge="1" parent="1" source="oVk_kqx2sWhHf-lJc-hk-25" target="oVk_kqx2sWhHf-lJc-hk-27">
          <mxGeometry relative="1" as="geometry" />
        </mxCell>
        <mxCell id="oVk_kqx2sWhHf-lJc-hk-40" style="edgeStyle=orthogonalEdgeStyle;rounded=0;orthogonalLoop=1;jettySize=auto;html=1;exitX=0.5;exitY=1;exitDx=0;exitDy=0;entryX=0.5;entryY=0;entryDx=0;entryDy=0;" edge="1" parent="1" source="oVk_kqx2sWhHf-lJc-hk-25" target="oVk_kqx2sWhHf-lJc-hk-32">
          <mxGeometry relative="1" as="geometry" />
        </mxCell>
        <mxCell id="oVk_kqx2sWhHf-lJc-hk-25" value="发送数据到云端" style="rounded=1;whiteSpace=wrap;html=1;fontSize=12;glass=0;strokeWidth=1;shadow=0;" vertex="1" parent="1">
          <mxGeometry x="189" y="357" width="120" height="40" as="geometry" />
        </mxCell>
        <mxCell id="oVk_kqx2sWhHf-lJc-hk-27" value="服务器" style="rounded=1;whiteSpace=wrap;html=1;fontSize=12;glass=0;strokeWidth=1;shadow=0;" vertex="1" parent="1">
          <mxGeometry x="430" y="282" width="120" height="40" as="geometry" />
        </mxCell>
        <mxCell id="oVk_kqx2sWhHf-lJc-hk-30" style="edgeStyle=orthogonalEdgeStyle;rounded=0;orthogonalLoop=1;jettySize=auto;html=1;exitX=0.5;exitY=1;exitDx=0;exitDy=0;entryX=0.5;entryY=0;entryDx=0;entryDy=0;" edge="1" parent="1" source="oVk_kqx2sWhHf-lJc-hk-32">
          <mxGeometry relative="1" as="geometry">
            <mxPoint x="248.5" y="502" as="targetPoint" />
          </mxGeometry>
        </mxCell>
        <mxCell id="oVk_kqx2sWhHf-lJc-hk-44" value="是" style="edgeLabel;html=1;align=center;verticalAlign=middle;resizable=0;points=[];" vertex="1" connectable="0" parent="oVk_kqx2sWhHf-lJc-hk-30">
          <mxGeometry x="-0.2858" relative="1" as="geometry">
            <mxPoint as="offset" />
          </mxGeometry>
        </mxCell>
        <mxCell id="oVk_kqx2sWhHf-lJc-hk-41" style="edgeStyle=orthogonalEdgeStyle;rounded=0;orthogonalLoop=1;jettySize=auto;html=1;exitX=0;exitY=0.5;exitDx=0;exitDy=0;entryX=0;entryY=0.5;entryDx=0;entryDy=0;" edge="1" parent="1" source="oVk_kqx2sWhHf-lJc-hk-32" target="oVk_kqx2sWhHf-lJc-hk-21">
          <mxGeometry relative="1" as="geometry">
            <Array as="points">
              <mxPoint x="150" y="440" />
              <mxPoint x="150" y="148" />
            </Array>
          </mxGeometry>
        </mxCell>
        <mxCell id="oVk_kqx2sWhHf-lJc-hk-42" value="否" style="edgeLabel;html=1;align=center;verticalAlign=middle;resizable=0;points=[];" vertex="1" connectable="0" parent="oVk_kqx2sWhHf-lJc-hk-41">
          <mxGeometry x="0.064" relative="1" as="geometry">
            <mxPoint as="offset" />
          </mxGeometry>
        </mxCell>
        <mxCell id="oVk_kqx2sWhHf-lJc-hk-32" value="是否停止" style="rhombus;whiteSpace=wrap;html=1;rounded=1;glass=0;strokeWidth=1;shadow=0;" vertex="1" parent="1">
          <mxGeometry x="209" y="420" width="80" height="40" as="geometry" />
        </mxCell>
        <mxCell id="oVk_kqx2sWhHf-lJc-hk-33" style="edgeStyle=orthogonalEdgeStyle;rounded=0;orthogonalLoop=1;jettySize=auto;html=1;exitX=0.5;exitY=1;exitDx=0;exitDy=0;entryX=0.5;entryY=0;entryDx=0;entryDy=0;" edge="1" parent="1" source="oVk_kqx2sWhHf-lJc-hk-34" target="oVk_kqx2sWhHf-lJc-hk-23">
          <mxGeometry relative="1" as="geometry" />
        </mxCell>
        <mxCell id="oVk_kqx2sWhHf-lJc-hk-34" value="降噪" style="rounded=1;whiteSpace=wrap;html=1;fontSize=12;glass=0;strokeWidth=1;shadow=0;" vertex="1" parent="1">
          <mxGeometry x="209" y="208" width="79" height="40" as="geometry" />
        </mxCell>
        <mxCell id="oVk_kqx2sWhHf-lJc-hk-39" value="" style="edgeStyle=orthogonalEdgeStyle;rounded=0;orthogonalLoop=1;jettySize=auto;html=1;exitX=0.5;exitY=1;exitDx=0;exitDy=0;" edge="1" parent="1" source="oVk_kqx2sWhHf-lJc-hk-27" target="oVk_kqx2sWhHf-lJc-hk-38">
          <mxGeometry relative="1" as="geometry">
            <mxPoint x="500" y="410" as="targetPoint" />
            <mxPoint x="500" y="288" as="sourcePoint" />
          </mxGeometry>
        </mxCell>
        <mxCell id="oVk_kqx2sWhHf-lJc-hk-46" value="" style="edgeStyle=orthogonalEdgeStyle;rounded=0;orthogonalLoop=1;jettySize=auto;html=1;" edge="1" parent="1" source="oVk_kqx2sWhHf-lJc-hk-38" target="oVk_kqx2sWhHf-lJc-hk-45">
          <mxGeometry relative="1" as="geometry" />
        </mxCell>
        <mxCell id="oVk_kqx2sWhHf-lJc-hk-38" value="服务器返回结果" style="rounded=1;whiteSpace=wrap;html=1;fontSize=12;glass=0;strokeWidth=1;shadow=0;" vertex="1" parent="1">
          <mxGeometry x="430" y="380" width="120" height="40" as="geometry" />
        </mxCell>
        <mxCell id="oVk_kqx2sWhHf-lJc-hk-45" value="提取识别结果&lt;div&gt;并提交到输入框&lt;/div&gt;" style="rounded=1;whiteSpace=wrap;html=1;fontSize=12;glass=0;strokeWidth=1;shadow=0;" vertex="1" parent="1">
          <mxGeometry x="430" y="460" width="120" height="40" as="geometry" />
        </mxCell>
      </root>
    </mxGraphModel>
  </diagram>
</mxfile>
